<svg width="226" height="167" viewBox="0 0 226 167" fill="none" xmlns="http://www.w3.org/2000/svg">
<g filter="url(#filter0_d_353_4603)">
<rect x="21.3229" y="21.3229" width="182.562" height="124.354" rx="14.5521" fill="white" stroke="#D9D9D9" stroke-width="2.64583"/>
<path d="M126.336 84.1718C126.336 104.346 110.169 120.7 90.2266 120.7C70.284 120.7 54.1174 104.346 54.1174 84.1718C54.1174 63.9978 70.284 47.6436 90.2266 47.6436C110.169 47.6436 126.336 63.9978 126.336 84.1718Z" fill="#ED0006"/>
<path d="M173.18 84.1718C173.18 104.346 157.013 120.7 137.071 120.7C117.128 120.7 100.962 104.346 100.962 84.1718C100.962 63.9978 117.128 47.6436 137.071 47.6436C157.013 47.6436 173.18 63.9978 173.18 84.1718Z" fill="#0099DF"/>
<path fill-rule="evenodd" clip-rule="evenodd" d="M113.649 111.974C121.413 105.274 126.336 95.3046 126.336 84.1719C126.336 73.0393 121.413 63.0698 113.649 56.3699C105.885 63.0698 100.962 73.0393 100.962 84.1719C100.962 95.3046 105.885 105.274 113.649 111.974Z" fill="#6C6BBD"/>
</g>
<defs>
<filter id="filter0_d_353_4603" x="0" y="0" width="225.208" height="167" filterUnits="userSpaceOnUse" color-interpolation-filters="sRGB">
<feFlood flood-opacity="0" result="BackgroundImageFix"/>
<feColorMatrix in="SourceAlpha" type="matrix" values="0 0 0 0 0 0 0 0 0 0 0 0 0 0 0 0 0 0 127 0" result="hardAlpha"/>
<feOffset/>
<feGaussianBlur stdDeviation="10"/>
<feComposite in2="hardAlpha" operator="out"/>
<feColorMatrix type="matrix" values="0 0 0 0 0 0 0 0 0 0 0 0 0 0 0 0 0 0 0.07 0"/>
<feBlend mode="normal" in2="BackgroundImageFix" result="effect1_dropShadow_353_4603"/>
<feBlend mode="normal" in="SourceGraphic" in2="effect1_dropShadow_353_4603" result="shape"/>
</filter>
</defs>
</svg>
